# xmcd
#
# Track frame offsets:
#	150
#	14970
#	32890
#	51372
#	61712
#	77927
#	95400
#	108662
#	125567
#	142247
#
# Disc length: 2125 seconds
# Revision: 2
# Processed by: cddbd v1.5.2PL0 Copyright (c) Steve Scherf et al.
# Submitted via: dBpowerAMP V12.0
#
DISCID=96084b0a
DTITLE=Willie Nelson - Love Songs
DYEAR=2000
DGENRE=Country
TTITLE0=Something
TTITLE1=I Can't Begin To Tell You
TTITLE2=To Each His Own
TTITLE3=What A Wonderful World
TTITLE4=Always On My Mind
TTITLE5=Unchained Melody
TTITLE6=My Own Peculiar Way
TTITLE7=If My World Didn't Have You
TTITLE8=Some Enchanted Evening
TTITLE9=Wind Beneath My Wings
EXTD=
EXTT0=
EXTT1=
EXTT2=
EXTT3=
EXTT4=
EXTT5=
EXTT6=
EXTT7=
EXTT8=
EXTT9=
PLAYORDER=
